<mxfile host="app.diagrams.net" modified="2023-12-05T21:19:39.132Z" agent="Mozilla/5.0 (X11; Linux x86_64) AppleWebKit/537.36 (KHTML, like Gecko) Chrome/118.0.0.0 Safari/537.36 OPR/104.0.0.0" version="22.1.5" etag="U3ZK3rKP6SSVXxaSkoeN" type="github">
  <diagram name="PÃ¡gina-1" id="FNa1WWN3RD8AUhTJxTOe">
    <mxGraphModel>
      <root>
        <mxCell id="0" />
        <mxCell id="1" parent="0" />
      </root>
    </mxGraphModel>
  </diagram>
</mxfile>
